<?xml version="1.0" standalone="no"?>
<!DOCTYPE svg PUBLIC "-//W3C//DTD SVG 20010904//EN"
 "http://www.w3.org/TR/2001/REC-SVG-20010904/DTD/svg10.dtd">
<svg version="1.0" xmlns="http://www.w3.org/2000/svg"
 width="225.000000pt" height="225.000000pt" viewBox="0 0 225.000000 225.000000"
 preserveAspectRatio="xMidYMid meet">
<metadata>
Created by potrace 1.14, written by Peter Selinger 2001-2017
</metadata>
<g transform="translate(0.000000,225.000000) scale(0.100000,-0.100000)"
fill="#000000" stroke="none">
<path d="M0 1125 l0 -1125 1125 0 1125 0 0 1125 0 1125 -1125 0 -1125 0 0
-1125z m1185 598 c43 -27 81 -54 83 -62 4 -11 -1 -10 -19 2 -35 25 -43 20 -20
-12 12 -16 21 -36 21 -45 0 -18 -33 -42 -70 -51 -21 -5 -29 0 -45 27 -11 18
-25 46 -32 63 -13 35 -17 125 -5 125 5 0 44 -21 87 -47z m366 -178 c19 -10 52
-33 74 -50 22 -18 58 -44 79 -59 l39 -26 -30 0 c-17 0 -55 13 -84 30 -120 67
-178 91 -223 93 -51 2 -57 8 -23 25 30 16 126 8 168 -13z m-281 -75 c-49 -44
-48 -48 7 -25 l36 15 -19 -21 c-10 -12 -44 -38 -74 -57 -30 -19 -75 -53 -99
-76 l-43 -41 16 35 17 35 -40 -43 c-44 -47 -81 -133 -81 -186 0 -33 1 -34 50
-40 70 -9 127 -36 184 -87 l49 -43 -17 33 c-24 46 -14 48 27 6 l34 -35 14 32
c7 18 41 60 74 93 97 97 255 167 409 182 62 6 67 8 41 15 -16 5 -68 12 -115
16 -93 8 -106 19 -59 54 33 25 95 33 134 18 23 -9 26 -13 15 -20 -10 -6 -3 -7
21 -4 48 8 95 -17 116 -61 12 -25 20 -32 28 -25 19 16 65 -47 65 -89 0 -30
-31 -42 -139 -50 -72 -6 -108 -13 -134 -29 -29 -17 -38 -18 -52 -8 -16 11 -13
15 26 39 24 14 39 26 32 27 -19 0 -113 -39 -147 -61 l-31 -21 30 26 c17 15 29
31 28 36 -5 17 46 47 119 71 87 29 64 37 -43 15 -101 -21 -203 -74 -266 -137
-67 -67 -94 -122 -96 -196 -2 -71 16 -119 52 -132 25 -9 25 -9 3 -10 -13 -1
-33 4 -45 10 -22 12 -22 12 -3 -10 40 -44 95 -23 149 59 15 22 17 22 17 5 0
-11 -7 -33 -15 -49 -21 -39 -20 -39 28 -34 60 7 97 27 125 68 l25 35 -6 -46
c-6 -41 -4 -48 13 -52 26 -7 25 -28 -1 -61 -16 -20 -24 -24 -34 -16 -9 8 -14
6 -18 -4 -6 -15 -81 -57 -127 -71 -20 -6 -23 -5 -12 6 18 20 14 32 -9 26 -35
-9 -142 13 -187 39 -38 22 -41 28 -35 52 5 15 7 53 7 85 -1 48 -6 64 -31 94
-37 46 -91 89 -123 98 -24 7 -24 7 -5 -9 19 -14 17 -14 -20 -4 -54 14 -138 3
-205 -28 -50 -23 -56 -24 -66 -9 -20 27 -26 108 -14 175 13 74 47 146 98 210
20 25 28 39 17 31 -11 -7 4 9 33 37 60 56 148 106 232 133 82 27 90 22 40 -21z
m192 -32 l37 -43 1 38 c0 40 13 48 30 18 7 -14 6 -21 -3 -24 -9 -3 -9 -7 2
-20 16 -20 42 -22 58 -6 6 6 17 8 23 4 16 -10 -7 -25 -38 -25 -37 0 -15 -19
31 -27 l42 -6 -35 -13 c-51 -18 -120 -17 -142 3 -10 9 -18 28 -18 43 0 15 -10
36 -25 50 -14 13 -25 29 -25 37 0 25 25 13 62 -29z m748 -247 c0 -6 -4 -12 -9
-15 -4 -3 -6 -17 -3 -31 3 -20 0 -27 -16 -32 -13 -3 -19 -10 -15 -19 6 -17
-24 -54 -44 -54 -18 0 -36 50 -26 71 8 17 92 87 106 88 4 1 7 -3 7 -8z m-497
-193 c-38 -41 -52 -67 -63 -121 l-8 -42 -1 38 c-2 65 50 157 88 157 10 0 5
-10 -16 -32z m147 25 c0 -5 -9 -21 -20 -38 -18 -27 -20 -28 -20 -8 0 32 10 53
26 53 8 0 14 -3 14 -7z m190 -31 c0 -9 -25 -33 -47 -46 -9 -5 -10 0 -2 24 7
19 18 30 30 30 10 0 19 -4 19 -8z m-900 -97 c24 -13 24 -14 5 -20 -143 -46
-243 -106 -301 -181 -47 -60 -50 -70 -16 -45 18 12 32 21 32 19 0 -2 -9 -31
-21 -63 -16 -46 -20 -75 -16 -122 l5 -63 -107 0 c-58 0 -135 5 -171 10 -82 13
-228 62 -300 100 l-55 29 60 -5 c33 -3 66 -7 73 -10 28 -8 8 5 -53 36 -74 37
-180 130 -226 196 -35 51 -30 57 12 14 62 -62 243 -141 374 -165 l40 -7 -48
42 c-26 23 -47 45 -47 50 0 4 26 -3 58 -15 65 -27 194 -55 247 -55 l37 0 -54
49 c-29 27 -61 63 -72 81 l-18 32 25 -17 c19 -12 113 -44 135 -45 1 0 -16 17
-39 37 -22 20 -49 54 -60 74 l-19 38 43 -19 c63 -28 170 -43 245 -36 67 7 153
38 173 62 14 17 27 17 59 -1z m-236 -413 c-5 -4 -12 -11 -15 -15 -3 -5 -9 -2
-12 5 -3 9 3 14 15 15 11 1 16 -1 12 -5z m76 -19 c-1 -24 -2 -26 -11 -10 -5 9
-7 22 -4 27 10 17 15 11 15 -17z m-48 -8 c-2 -14 -6 -25 -8 -25 -2 0 -4 11 -4
25 0 14 4 25 9 25 4 0 6 -11 3 -25z m23 -5 c3 -5 1 -10 -4 -10 -6 0 -11 5 -11
10 0 6 2 10 4 10 3 0 8 -4 11 -10z"/>
</g>
</svg>
